<?xml version="1.0" encoding="UTF-8" standalone="no"?>
<!-- Created with Inkscape (http://www.inkscape.org/) -->

<svg
   xmlns:dc="http://purl.org/dc/elements/1.1/"
   xmlns:cc="http://creativecommons.org/ns#"
   xmlns:rdf="http://www.w3.org/1999/02/22-rdf-syntax-ns#"
   xmlns:svg="http://www.w3.org/2000/svg"
   xmlns="http://www.w3.org/2000/svg"
   xmlns:sodipodi="http://sodipodi.sourceforge.net/DTD/sodipodi-0.dtd"
   xmlns:inkscape="http://www.inkscape.org/namespaces/inkscape"
   width="64"
   height="64"
   viewBox="0 0 64.000001 64.000001"
   id="svg2"
   version="1.1"
   inkscape:version="0.48.4 r9939"
   sodipodi:docname="brush_lite.svg">
  <defs
     id="defs4" />
  <sodipodi:namedview
     id="base"
     pagecolor="#ffffff"
     bordercolor="#666666"
     borderopacity="1.0"
     inkscape:pageopacity="0.0"
     inkscape:pageshadow="2"
     inkscape:zoom="11.2"
     inkscape:cx="14.206233"
     inkscape:cy="26.856302"
     inkscape:document-units="px"
     inkscape:current-layer="g3911"
     showgrid="false"
     units="px"
     inkscape:window-width="1920"
     inkscape:window-height="1018"
     inkscape:window-x="-8"
     inkscape:window-y="-8"
     inkscape:window-maximized="1" />
  <metadata
     id="metadata7">
    <rdf:RDF>
      <cc:Work
         rdf:about="">
        <dc:format>image/svg+xml</dc:format>
        <dc:type
           rdf:resource="http://purl.org/dc/dcmitype/StillImage" />
        <dc:title></dc:title>
      </cc:Work>
    </rdf:RDF>
  </metadata>
  <g
     inkscape:label="Layer 1"
     inkscape:groupmode="layer"
     id="layer1"
     transform="translate(0,-988.36216)">
    <g
       id="g3134"
       style="fill:none;stroke:#e6e6e6;stroke-opacity:1">
      <g
         id="g3911"
         transform="matrix(0.85202633,-0.85202633,0.85202633,0.85202633,-861.54013,176.88824)"
         style="stroke-width:1.58098217;stroke-miterlimit:4;stroke-dasharray:none">
        <g
           style="fill:none;stroke:#e6e6e6;stroke-width:1.08303499;stroke-linejoin:round;stroke-miterlimit:4;stroke-opacity:1;stroke-dasharray:none"
           id="g3126"
           transform="translate(7.2281429,-4.5185585)">
          <path
             sodipodi:nodetypes="csssssc"
             inkscape:connector-curvature="0"
             id="path3121"
             d="m 28.327945,999.0587 c -3.608362,2.3196 -5.119125,3.4726 -6.729445,4.8514 -1.691344,1.4481 -3.999158,4.2339 -2.274957,6.4051 1.701026,2.1419 5.777132,3.8084 7.017999,1.1905 1.059716,-2.2355 -0.11318,-0.2834 -0.150243,-5.1807 -0.03006,-3.9691 -1.532599,-1.7356 0.557797,-4.7476 0.961261,-1.3851 1.458824,-2.37053 1.578849,-2.5187 z"
             style="fill:none;stroke:#e6e6e6;stroke-width:1.08303499;stroke-linecap:butt;stroke-linejoin:round;stroke-miterlimit:4;stroke-opacity:1;stroke-dasharray:none" />
          <path
             style="fill:none;stroke:#e6e6e6;stroke-width:1.08303499;stroke-linecap:butt;stroke-linejoin:round;stroke-miterlimit:4;stroke-opacity:1;stroke-dasharray:none"
             d="m 24.905217,994.80352 c -3.167327,3.88688 -4.43695,5.72258 -5.743618,7.85088 -1.37241,2.2357 -2.993267,6.2141 -0.460121,8.1158 2.499117,1.8761 7.409815,2.3988 7.933148,-1.0241 0.446911,-2.923 -0.21011,-0.2863 -1.772764,-5.8869 -1.266405,-4.53897 -2.191246,-1.4678 -0.875013,-5.63152 0.605263,-1.91471 0.835077,-3.2135 0.918361,-3.42416 z"
             id="path3124"
             inkscape:connector-curvature="0"
             sodipodi:nodetypes="csssssc" />
        </g>
        <path
           id="rect3130"
           transform="translate(0,988.36216)"
           d="m 26.6875,19.71875 c -0.885417,0 -1.59375,0.451381 -1.59375,1.03125 l 0,3 c 0,0.434901 0.394737,0.810274 0.96875,0.96875 -0.17144,0.151763 -0.28125,0.340084 -0.28125,0.53125 l 0,29.90625 c 0,0.556119 0.838955,1 1.875,1 l 4.0625,0 c 1.036045,0 1.875,-0.443881 1.875,-1 l 0,-29.90625 c 0,-0.191166 -0.10981,-0.379487 -0.28125,-0.53125 0.574013,-0.158476 0.96875,-0.533849 0.96875,-0.96875 l 0,-3 c 0,-0.579869 -0.708333,-1.03125 -1.59375,-1.03125 l -6,0 z"
           style="fill:none;stroke:#e6e6e6;stroke-width:2.16192051;stroke-linecap:butt;stroke-linejoin:miter;stroke-opacity:1;stroke-miterlimit:4;stroke-dasharray:none"
           inkscape:connector-curvature="0" />
      </g>
    </g>
  </g>
</svg>
