<?xml version="1.0" encoding="UTF-8" standalone="no"?>
<!-- Created with Inkscape (http://www.inkscape.org/) -->

<svg
   xmlns:dc="http://purl.org/dc/elements/1.1/"
   xmlns:cc="http://creativecommons.org/ns#"
   xmlns:rdf="http://www.w3.org/1999/02/22-rdf-syntax-ns#"
   xmlns:svg="http://www.w3.org/2000/svg"
   xmlns="http://www.w3.org/2000/svg"
   xmlns:sodipodi="http://sodipodi.sourceforge.net/DTD/sodipodi-0.dtd"
   xmlns:inkscape="http://www.inkscape.org/namespaces/inkscape"
   width="64"
   height="64"
   viewBox="0 0 64.000001 64.000001"
   id="svg2"
   version="1.1"
   inkscape:version="0.48.4 r9939"
   sodipodi:docname="fill_lite.svg">
  <defs
     id="defs4" />
  <sodipodi:namedview
     id="base"
     pagecolor="#ffffff"
     bordercolor="#666666"
     borderopacity="1.0"
     inkscape:pageopacity="0.0"
     inkscape:pageshadow="2"
     inkscape:zoom="15.839192"
     inkscape:cx="14.527183"
     inkscape:cy="40.486057"
     inkscape:document-units="px"
     inkscape:current-layer="g3126"
     showgrid="false"
     units="px"
     inkscape:window-width="1920"
     inkscape:window-height="1018"
     inkscape:window-x="-8"
     inkscape:window-y="-8"
     inkscape:window-maximized="1" />
  <metadata
     id="metadata7">
    <rdf:RDF>
      <cc:Work
         rdf:about="">
        <dc:format>image/svg+xml</dc:format>
        <dc:type
           rdf:resource="http://purl.org/dc/dcmitype/StillImage" />
        <dc:title></dc:title>
      </cc:Work>
    </rdf:RDF>
  </metadata>
  <g
     inkscape:label="Layer 1"
     inkscape:groupmode="layer"
     id="layer1"
     transform="translate(0,-988.36216)">
    <g
       id="g3134"
       style="fill:none;stroke:#e6e6e6;stroke-opacity:1">
      <g
         id="g3911"
         transform="matrix(0.85202633,-0.85202633,0.85202633,0.85202633,-861.54013,176.88824)"
         style="stroke-width:1.58098217;stroke-miterlimit:4;stroke-dasharray:none">
        <g
           style="fill:none;stroke:#e6e6e6;stroke-width:1.08303499;stroke-linejoin:round;stroke-miterlimit:4;stroke-opacity:1;stroke-dasharray:none"
           id="g3126"
           transform="translate(7.2281429,-4.5185585)">
          <path
             style="fill:none;stroke:#e6e6e6;stroke-width:1.0275507;stroke-linecap:butt;stroke-linejoin:round;stroke-miterlimit:4;stroke-opacity:1;stroke-dasharray:none"
             d="m 29.741094,1017.4354 c -0.887736,-0.7314 -2.769146,-1.3323 -4.365971,-1.5996 -2.5854,-0.2435 -6.600093,1.276 -5.319981,3.0054 -0.216455,0.6367 2.899358,5.4261 3.313897,6.0169 1.275787,1.8184 0.301454,0.01 4.280734,1.957 3.22512,1.5819 2.173063,-0.605 3.559264,2.4159 0.637473,1.3892 1.174449,2.2139 1.233967,2.3774 -0.05077,-3.2148 -0.164594,-4.992 -0.365334,-6.5619 0.134391,0.1519 0.17612,0.1872 0.359109,0.396 0.99533,1.1353 1.751223,1.7521 1.852889,1.8897 -1.113395,-3.7733 -1.729405,-5.3706 -2.539245,-7.1128 -0.425264,-0.915 -1.121593,-2.0526 -2.009329,-2.784 z"
             id="path3121"
             inkscape:connector-curvature="0"
             sodipodi:nodetypes="sccccccccccs" />
          <path
             style="fill:#e6e6e6;fill-rule:evenodd;stroke:none"
             d="m 10.776913,1008.2379 -5.524303,5.7448 0.022138,-0.024 c -0.6184013,0.5864 -1.2563428,1.2018 -1.9092322,1.8547 l -0.5622927,0.5622 c -4.1109762,4.111 -7.0789887,7.77 -6.6603767,8.1886 l 17.5875963,17.5876 c 0.418612,0.4186 4.063922,-2.5631 8.174918,-6.674 l 0.562279,-0.5623 c 0.652888,-0.6529 1.268222,-1.2908 1.854664,-1.9092 l 0.02637,0.026 5.694077,-5.5287 z"
             id="rect3970"
             inkscape:connector-curvature="0"
             sodipodi:nodetypes="cccsssssscccc" />
          <rect
             style="fill:none;stroke:#e6e6e6;stroke-width:1.39508191;stroke-linecap:butt;stroke-linejoin:miter;stroke-opacity:1;stroke-miterlimit:4;stroke-dasharray:none"
             id="rect4487"
             width="7.298564"
             height="26.84231"
             x="725.70612"
             y="684.56439"
             transform="matrix(0.70710678,0.70710678,-0.70710678,0.70710678,0,0)"
             rx="2.3515849"
             ry="2.6728573" />
        </g>
      </g>
    </g>
  </g>
</svg>
