<?xml version="1.0" encoding="UTF-8" standalone="no"?>
<!-- Created with Inkscape (http://www.inkscape.org/) -->

<svg
   xmlns:dc="http://purl.org/dc/elements/1.1/"
   xmlns:cc="http://creativecommons.org/ns#"
   xmlns:rdf="http://www.w3.org/1999/02/22-rdf-syntax-ns#"
   xmlns:svg="http://www.w3.org/2000/svg"
   xmlns="http://www.w3.org/2000/svg"
   xmlns:sodipodi="http://sodipodi.sourceforge.net/DTD/sodipodi-0.dtd"
   xmlns:inkscape="http://www.inkscape.org/namespaces/inkscape"
   width="64"
   height="64"
   viewBox="0 0 64.000001 64.000001"
   id="svg2"
   version="1.1"
   inkscape:version="0.48.4 r9939"
   sodipodi:docname="redo_lite.svg">
  <defs
     id="defs4" />
  <sodipodi:namedview
     id="base"
     pagecolor="#ffffff"
     bordercolor="#666666"
     borderopacity="1.0"
     inkscape:pageopacity="0.0"
     inkscape:pageshadow="2"
     inkscape:zoom="7.919596"
     inkscape:cx="14.527183"
     inkscape:cy="37.960675"
     inkscape:document-units="px"
     inkscape:current-layer="g3126"
     showgrid="false"
     units="px"
     inkscape:window-width="1920"
     inkscape:window-height="1018"
     inkscape:window-x="-8"
     inkscape:window-y="-8"
     inkscape:window-maximized="1" />
  <metadata
     id="metadata7">
    <rdf:RDF>
      <cc:Work
         rdf:about="">
        <dc:format>image/svg+xml</dc:format>
        <dc:type
           rdf:resource="http://purl.org/dc/dcmitype/StillImage" />
        <dc:title></dc:title>
      </cc:Work>
    </rdf:RDF>
  </metadata>
  <g
     inkscape:label="Layer 1"
     inkscape:groupmode="layer"
     id="layer1"
     transform="translate(0,-988.36216)">
    <g
       id="g3134"
       style="fill:none;stroke:#e6e6e6;stroke-opacity:1">
      <g
         id="g3911"
         transform="matrix(0.85202633,-0.85202633,0.85202633,0.85202633,-861.54013,176.88824)"
         style="stroke-width:1.58098217;stroke-miterlimit:4;stroke-dasharray:none">
        <g
           style="fill:none;stroke:#e6e6e6;stroke-width:1.08303499;stroke-linejoin:round;stroke-miterlimit:4;stroke-opacity:1;stroke-dasharray:none"
           id="g3126"
           transform="translate(7.2281429,-4.5185585)">
          <path
             style="fill:#e6e6e6;fill-opacity:1;fill-rule:nonzero;stroke:#e6e6e6;stroke-width:1.72704667000000000;stroke-linecap:square;stroke-linejoin:miter;stroke-miterlimit:4;stroke-opacity:1;stroke-dasharray:none;stroke-dashoffset:0"
             d="m 43.315313,1017.4063 0.67853,8.0873 0.678529,8.0874 -8.087338,-0.6419 -8.105677,-0.6602 4.492966,-4.4929 -12.598643,-12.5987 c -0.191065,-0.191 -0.484263,-0.2857 -0.568497,-0.5318 -0.0072,0 -0.01111,-0.016 -0.01834,-0.018 -3.903737,-1.0013 -7.503735,-0.4919 -9.7928312,1.7971 -4.3993195,4.3994 -2.3011725,13.6168 4.6763522,20.5943 1.933756,1.9338 4.033593,3.4725 6.161781,4.6214 -5.28204,0.6789 -10.9099127,-1.0438 -15.074358,-5.2082 -6.9775244,-6.9775 -7.2045397,-18.0661 -0.5134818,-24.7572 5.1537798,-5.1537 12.9187588,-6.206 19.4022758,-3.2276 0.89163,0.9007 0.639178,0.7493 1.173673,1.2837 l 12.598643,12.5987 4.896415,-4.9331 z"
             id="path4497"
             inkscape:connector-curvature="0" />
        </g>
      </g>
    </g>
  </g>
</svg>
