<?xml version="1.0" encoding="UTF-8" standalone="no"?>
<!-- Created with Inkscape (http://www.inkscape.org/) -->

<svg
   xmlns:dc="http://purl.org/dc/elements/1.1/"
   xmlns:cc="http://creativecommons.org/ns#"
   xmlns:rdf="http://www.w3.org/1999/02/22-rdf-syntax-ns#"
   xmlns:svg="http://www.w3.org/2000/svg"
   xmlns="http://www.w3.org/2000/svg"
   xmlns:sodipodi="http://sodipodi.sourceforge.net/DTD/sodipodi-0.dtd"
   xmlns:inkscape="http://www.inkscape.org/namespaces/inkscape"
   width="64"
   height="64"
   viewBox="0 0 64.000001 64.000001"
   id="svg2"
   version="1.1"
   inkscape:version="0.91 r13725"
   sodipodi:docname="settings_lite.svg">
  <defs
     id="defs4" />
  <sodipodi:namedview
     id="base"
     pagecolor="#ffffff"
     bordercolor="#666666"
     borderopacity="1.0"
     inkscape:pageopacity="0.0"
     inkscape:pageshadow="2"
     inkscape:zoom="7.9195959"
     inkscape:cx="34.978199"
     inkscape:cy="37.159016"
     inkscape:document-units="px"
     inkscape:current-layer="layer1"
     showgrid="false"
     units="px"
     inkscape:window-width="1512"
     inkscape:window-height="791"
     inkscape:window-x="-8"
     inkscape:window-y="-8"
     inkscape:window-maximized="1" />
  <metadata
     id="metadata7">
    <rdf:RDF>
      <cc:Work
         rdf:about="">
        <dc:format>image/svg+xml</dc:format>
        <dc:type
           rdf:resource="http://purl.org/dc/dcmitype/StillImage" />
        <dc:title></dc:title>
      </cc:Work>
    </rdf:RDF>
  </metadata>
  <g
     inkscape:label="Layer 1"
     inkscape:groupmode="layer"
     id="layer1"
     transform="translate(0,-988.36216)">
    <path
       style="fill:#f2f2f2;stroke:none"
       d="M 32 7 A 26 26 0 0 0 6 33 A 26 26 0 0 0 32 59 A 26 26 0 0 0 58 33 A 26 26 0 0 0 32 7 z M 32.089844 11.322266 A 21.09054 21.588978 0 0 1 53.181641 32.910156 A 21.09054 21.588978 0 0 1 32.089844 54.5 A 21.09054 21.588978 0 0 1 11 32.910156 A 21.09054 21.588978 0 0 1 32.089844 11.322266 z "
       transform="translate(0,988.36216)"
       id="path4136" />
    <rect
       style="fill:#f2f2f2;stroke:none"
       id="rect4138"
       width="14.394674"
       height="6.5659914"
       x="25.127546"
       y="991.12164"
       ry="1.1364216" />
    <rect
       ry="1.1364216"
       y="1043.99"
       x="25.127546"
       height="6.5659914"
       width="14.394674"
       id="rect4140"
       style="fill:#f2f2f2;stroke:none" />
    <rect
       ry="1.1364216"
       y="-48.909767"
       x="1014.6083"
       height="6.5659914"
       width="14.394674"
       id="rect4142"
       style="fill:#f2f2f2;stroke:none"
       transform="matrix(0.01280205,0.99991805,-0.99991805,0.01280205,0,0)" />
    <rect
       transform="matrix(0.01280205,0.99991805,-0.99991805,0.01280205,0,0)"
       style="fill:#f2f2f2;stroke:none"
       id="rect4144"
       width="14.394674"
       height="6.5659914"
       x="1013.9185"
       y="4.8646331"
       ry="1.1364216" />
    <rect
       transform="matrix(0.6671799,0.74489663,-0.74489663,0.6671799,0,0)"
       style="fill:#f2f2f2;stroke:none"
       id="rect4149"
       width="14.394674"
       height="6.5659914"
       x="773.38446"
       y="627.05164"
       ry="1.1364216" />
    <rect
       ry="1.1364216"
       y="746.59192"
       x="715.01361"
       height="6.5659914"
       width="14.394674"
       id="rect4151"
       style="fill:#f2f2f2;stroke:none"
       transform="matrix(0.72928538,0.68420965,-0.68420965,0.72928538,0,0)" />
    <rect
       ry="1.1364216"
       y="742.41815"
       x="-675.28217"
       height="6.5659914"
       width="14.394674"
       id="rect4153"
       style="fill:#f2f2f2;stroke:none"
       transform="matrix(0.73591078,-0.67707852,0.67707852,0.73591078,0,0)" />
    <rect
       transform="matrix(0.74056173,-0.67198834,0.67198834,0.74056173,0,0)"
       style="fill:#f2f2f2;stroke:none"
       id="rect4155"
       width="14.394674"
       height="6.5659914"
       x="-668.8172"
       y="801.56122"
       ry="1.1364216" />
    <circle
       style="fill:#f9f9f9;stroke:none"
       id="path4157"
       cx="33"
       cy="1021.3622"
       r="7.5" />
  </g>
</svg>
