<?xml version="1.0" encoding="UTF-8" standalone="no"?>
<!-- Created with Inkscape (http://www.inkscape.org/) -->

<svg
   xmlns:dc="http://purl.org/dc/elements/1.1/"
   xmlns:cc="http://creativecommons.org/ns#"
   xmlns:rdf="http://www.w3.org/1999/02/22-rdf-syntax-ns#"
   xmlns:svg="http://www.w3.org/2000/svg"
   xmlns="http://www.w3.org/2000/svg"
   xmlns:sodipodi="http://sodipodi.sourceforge.net/DTD/sodipodi-0.dtd"
   xmlns:inkscape="http://www.inkscape.org/namespaces/inkscape"
   width="64px"
   height="64px"
   id="svg5312"
   version="1.1"
   inkscape:version="0.48.4 r9939"
   sodipodi:docname="temp_New.svg">
  <defs
     id="defs5314">
    <marker
       inkscape:stockid="DotL"
       orient="auto"
       refY="0.0"
       refX="0.0"
       id="DotL"
       style="overflow:visible">
      <path
         id="path6075"
         d="M -2.5,-1.0 C -2.5,1.7600000 -4.7400000,4.0 -7.5,4.0 C -10.260000,4.0 -12.5,1.7600000 -12.5,-1.0 C -12.5,-3.7600000 -10.260000,-6.0 -7.5,-6.0 C -4.7400000,-6.0 -2.5,-3.7600000 -2.5,-1.0 z "
         style="fill-rule:evenodd;stroke:#000000;stroke-width:1.0pt"
         transform="scale(0.8) translate(7.4, 1)" />
    </marker>
  </defs>
  <sodipodi:namedview
     id="base"
     pagecolor="#ffffff"
     bordercolor="#666666"
     borderopacity="1.0"
     inkscape:pageopacity="0.0"
     inkscape:pageshadow="2"
     inkscape:zoom="4.66"
     inkscape:cx="-3.8181818"
     inkscape:cy="94.545455"
     inkscape:current-layer="layer1"
     showgrid="true"
     inkscape:document-units="px"
     inkscape:grid-bbox="true"
     showguides="true"
     inkscape:guide-bbox="true"
     inkscape:window-width="1920"
     inkscape:window-height="1018"
     inkscape:window-x="-8"
     inkscape:window-y="-8"
     inkscape:window-maximized="1" />
  <metadata
     id="metadata5317">
    <rdf:RDF>
      <cc:Work
         rdf:about="">
        <dc:format>image/svg+xml</dc:format>
        <dc:type
           rdf:resource="http://purl.org/dc/dcmitype/StillImage" />
        <dc:title></dc:title>
      </cc:Work>
    </rdf:RDF>
  </metadata>
  <g
     id="layer1"
     inkscape:label="Layer 1"
     inkscape:groupmode="layer">
    <rect
       style="fill:#f0f0f0;fill-opacity:1;fill-rule:evenodd;stroke:none;stroke-width:0.17863913000000001;stroke-linecap:square;stroke-miterlimit:4;stroke-opacity:1;stroke-dasharray:none;stroke-dashoffset:0"
       id="rect5320"
       width="47.294086"
       height="60.566811"
       x="4.5347738"
       y="3.0802286"
       ry="1.3356824" />
    <g
       id="g6656"
       style="fill:#eae202;fill-opacity:1"
       transform="matrix(1.4762081,0,0,1.4762081,-25.046825,1.0158631)">
      <path
         transform="matrix(0.49450542,0,0,0.49450542,74.503492,-7.096903)"
         d="m -46.727273,31.636364 c 0,1.204985 -1.017534,2.181818 -2.272727,2.181818 -1.255193,0 -2.272727,-0.976833 -2.272727,-2.181818 0,-1.204985 1.017534,-2.181818 2.272727,-2.181818 1.255193,0 2.272727,0.976833 2.272727,2.181818 z"
         sodipodi:ry="2.1818182"
         sodipodi:rx="2.2727273"
         sodipodi:cy="31.636364"
         sodipodi:cx="-49"
         id="path6638"
         style="fill:#eae202;fill-opacity:1;stroke:none"
         sodipodi:type="arc" />
      <path
         sodipodi:type="arc"
         style="fill:#eae202;fill-opacity:1;stroke:none"
         id="path6640"
         sodipodi:cx="-49"
         sodipodi:cy="31.636364"
         sodipodi:rx="2.2727273"
         sodipodi:ry="2.1818182"
         d="m -46.727273,31.636364 c 0,1.204985 -1.017534,2.181818 -2.272727,2.181818 -1.255193,0 -2.272727,-0.976833 -2.272727,-2.181818 0,-1.204985 1.017534,-2.181818 2.272727,-2.181818 1.255193,0 2.272727,0.976833 2.272727,2.181818 z"
         transform="matrix(0.49450542,0,0,1.4629118,74.503492,-42.54395)" />
      <path
         transform="matrix(0.49450542,0,0,1.4629118,74.503492,-32.563931)"
         d="m -46.727273,31.636364 c 0,1.204985 -1.017534,2.181818 -2.272727,2.181818 -1.255193,0 -2.272727,-0.976833 -2.272727,-2.181818 0,-1.204985 1.017534,-2.181818 2.272727,-2.181818 1.255193,0 2.272727,0.976833 2.272727,2.181818 z"
         sodipodi:ry="2.1818182"
         sodipodi:rx="2.2727273"
         sodipodi:cy="31.636364"
         sodipodi:cx="-49"
         id="path6642"
         style="fill:#eae202;fill-opacity:1;stroke:none"
         sodipodi:type="arc" />
      <path
         transform="matrix(0,-0.49450542,1.4629118,0,-0.99849162,-15.503496)"
         d="m -46.727273,31.636364 c 0,1.204985 -1.017534,2.181818 -2.272727,2.181818 -1.255193,0 -2.272727,-0.976833 -2.272727,-2.181818 0,-1.204985 1.017534,-2.181818 2.272727,-2.181818 1.255193,0 2.272727,0.976833 2.272727,2.181818 z"
         sodipodi:ry="2.1818182"
         sodipodi:rx="2.2727273"
         sodipodi:cy="31.636364"
         sodipodi:cx="-49"
         id="path6644"
         style="fill:#eae202;fill-opacity:1;stroke:none"
         sodipodi:type="arc" />
      <path
         sodipodi:type="arc"
         style="fill:#eae202;fill-opacity:1;stroke:none"
         id="path6646"
         sodipodi:cx="-49"
         sodipodi:cy="31.636364"
         sodipodi:rx="2.2727273"
         sodipodi:ry="2.1818182"
         d="m -46.727273,31.636364 c 0,1.204985 -1.017534,2.181818 -2.272727,2.181818 -1.255193,0 -2.272727,-0.976833 -2.272727,-2.181818 0,-1.204985 1.017534,-2.181818 2.272727,-2.181818 1.255193,0 2.272727,0.976833 2.272727,2.181818 z"
         transform="matrix(0,-0.49450542,1.4629118,0,8.9815258,-15.503496)" />
      <path
         sodipodi:type="arc"
         style="fill:#eae202;fill-opacity:1;stroke:none"
         id="path6648"
         sodipodi:cx="-49"
         sodipodi:cy="31.636364"
         sodipodi:rx="2.2727273"
         sodipodi:ry="2.1818182"
         d="m -46.727273,31.636364 c 0,1.204985 -1.017534,2.181818 -2.272727,2.181818 -1.255193,0 -2.272727,-0.976833 -2.272727,-2.181818 0,-1.204985 1.017534,-2.181818 2.272727,-2.181818 1.255193,0 2.272727,0.976833 2.272727,2.181818 z"
         transform="matrix(-0.34966813,-0.34966813,1.0344349,-1.0344349,-3.1152348,27.847756)" />
      <path
         transform="matrix(-0.34966813,-0.34966813,1.0344349,-1.0344349,3.9416961,20.790821)"
         d="m -46.727273,31.636364 c 0,1.204985 -1.017534,2.181818 -2.272727,2.181818 -1.255193,0 -2.272727,-0.976833 -2.272727,-2.181818 0,-1.204985 1.017534,-2.181818 2.272727,-2.181818 1.255193,0 2.272727,0.976833 2.272727,2.181818 z"
         sodipodi:ry="2.1818182"
         sodipodi:rx="2.2727273"
         sodipodi:cy="31.636364"
         sodipodi:cx="-49"
         id="path6650"
         style="fill:#eae202;fill-opacity:1;stroke:none"
         sodipodi:type="arc" />
      <path
         transform="matrix(-0.34966813,0.34966813,-1.0344349,-1.0344349,69.393215,62.115231)"
         d="m -46.727273,31.636364 c 0,1.204985 -1.017534,2.181818 -2.272727,2.181818 -1.255193,0 -2.272727,-0.976833 -2.272727,-2.181818 0,-1.204985 1.017534,-2.181818 2.272727,-2.181818 1.255193,0 2.272727,0.976833 2.272727,2.181818 z"
         sodipodi:ry="2.1818182"
         sodipodi:rx="2.2727273"
         sodipodi:cy="31.636364"
         sodipodi:cx="-49"
         id="path6652"
         style="fill:#eae202;fill-opacity:1;stroke:none"
         sodipodi:type="arc" />
      <path
         sodipodi:type="arc"
         style="fill:#eae202;fill-opacity:1;stroke:none"
         id="path6654"
         sodipodi:cx="-49"
         sodipodi:cy="31.636364"
         sodipodi:rx="2.2727273"
         sodipodi:ry="2.1818182"
         d="m -46.727273,31.636364 c 0,1.204985 -1.017534,2.181818 -2.272727,2.181818 -1.255193,0 -2.272727,-0.976833 -2.272727,-2.181818 0,-1.204985 1.017534,-2.181818 2.272727,-2.181818 1.255193,0 2.272727,0.976833 2.272727,2.181818 z"
         transform="matrix(-0.34966813,0.34966813,-1.0344349,-1.0344349,62.33628,55.0583)" />
    </g>
    <g
       id="g6667"
       transform="matrix(1.4762081,0,0,1.4762081,-25.503816,0.38766201)">
      <path
         sodipodi:type="arc"
         style="fill:#fdf539;fill-opacity:1;stroke:none"
         id="path6669"
         sodipodi:cx="-49"
         sodipodi:cy="31.636364"
         sodipodi:rx="2.2727273"
         sodipodi:ry="2.1818182"
         d="m -46.727273,31.636364 c 0,1.204985 -1.017534,2.181818 -2.272727,2.181818 -1.255193,0 -2.272727,-0.976833 -2.272727,-2.181818 0,-1.204985 1.017534,-2.181818 2.272727,-2.181818 1.255193,0 2.272727,0.976833 2.272727,2.181818 z"
         transform="matrix(0.49450542,0,0,0.49450542,74.503492,-7.096903)" />
      <path
         transform="matrix(0.49450542,0,0,1.4629118,74.503492,-42.54395)"
         d="m -46.727273,31.636364 c 0,1.204985 -1.017534,2.181818 -2.272727,2.181818 -1.255193,0 -2.272727,-0.976833 -2.272727,-2.181818 0,-1.204985 1.017534,-2.181818 2.272727,-2.181818 1.255193,0 2.272727,0.976833 2.272727,2.181818 z"
         sodipodi:ry="2.1818182"
         sodipodi:rx="2.2727273"
         sodipodi:cy="31.636364"
         sodipodi:cx="-49"
         id="path6671"
         style="fill:#fdf539;fill-opacity:1;stroke:none"
         sodipodi:type="arc" />
      <path
         sodipodi:type="arc"
         style="fill:#fdf539;fill-opacity:1;stroke:none"
         id="path6673"
         sodipodi:cx="-49"
         sodipodi:cy="31.636364"
         sodipodi:rx="2.2727273"
         sodipodi:ry="2.1818182"
         d="m -46.727273,31.636364 c 0,1.204985 -1.017534,2.181818 -2.272727,2.181818 -1.255193,0 -2.272727,-0.976833 -2.272727,-2.181818 0,-1.204985 1.017534,-2.181818 2.272727,-2.181818 1.255193,0 2.272727,0.976833 2.272727,2.181818 z"
         transform="matrix(0.49450542,0,0,1.4629118,74.503492,-32.563931)" />
      <path
         sodipodi:type="arc"
         style="fill:#fdf539;fill-opacity:1;stroke:none"
         id="path6675"
         sodipodi:cx="-49"
         sodipodi:cy="31.636364"
         sodipodi:rx="2.2727273"
         sodipodi:ry="2.1818182"
         d="m -46.727273,31.636364 c 0,1.204985 -1.017534,2.181818 -2.272727,2.181818 -1.255193,0 -2.272727,-0.976833 -2.272727,-2.181818 0,-1.204985 1.017534,-2.181818 2.272727,-2.181818 1.255193,0 2.272727,0.976833 2.272727,2.181818 z"
         transform="matrix(0,-0.49450542,1.4629118,0,-0.99849162,-15.503496)" />
      <path
         transform="matrix(0,-0.49450542,1.4629118,0,8.9815258,-15.503496)"
         d="m -46.727273,31.636364 c 0,1.204985 -1.017534,2.181818 -2.272727,2.181818 -1.255193,0 -2.272727,-0.976833 -2.272727,-2.181818 0,-1.204985 1.017534,-2.181818 2.272727,-2.181818 1.255193,0 2.272727,0.976833 2.272727,2.181818 z"
         sodipodi:ry="2.1818182"
         sodipodi:rx="2.2727273"
         sodipodi:cy="31.636364"
         sodipodi:cx="-49"
         id="path6677"
         style="fill:#fdf539;fill-opacity:1;stroke:none"
         sodipodi:type="arc" />
      <path
         transform="matrix(-0.34966813,-0.34966813,1.0344349,-1.0344349,-3.1152348,27.847756)"
         d="m -46.727273,31.636364 c 0,1.204985 -1.017534,2.181818 -2.272727,2.181818 -1.255193,0 -2.272727,-0.976833 -2.272727,-2.181818 0,-1.204985 1.017534,-2.181818 2.272727,-2.181818 1.255193,0 2.272727,0.976833 2.272727,2.181818 z"
         sodipodi:ry="2.1818182"
         sodipodi:rx="2.2727273"
         sodipodi:cy="31.636364"
         sodipodi:cx="-49"
         id="path6679"
         style="fill:#fdf539;fill-opacity:1;stroke:none"
         sodipodi:type="arc" />
      <path
         sodipodi:type="arc"
         style="fill:#fdf539;fill-opacity:1;stroke:none"
         id="path6681"
         sodipodi:cx="-49"
         sodipodi:cy="31.636364"
         sodipodi:rx="2.2727273"
         sodipodi:ry="2.1818182"
         d="m -46.727273,31.636364 c 0,1.204985 -1.017534,2.181818 -2.272727,2.181818 -1.255193,0 -2.272727,-0.976833 -2.272727,-2.181818 0,-1.204985 1.017534,-2.181818 2.272727,-2.181818 1.255193,0 2.272727,0.976833 2.272727,2.181818 z"
         transform="matrix(-0.34966813,-0.34966813,1.0344349,-1.0344349,3.9416961,20.790821)" />
      <path
         sodipodi:type="arc"
         style="fill:#fdf539;fill-opacity:1;stroke:none"
         id="path6683"
         sodipodi:cx="-49"
         sodipodi:cy="31.636364"
         sodipodi:rx="2.2727273"
         sodipodi:ry="2.1818182"
         d="m -46.727273,31.636364 c 0,1.204985 -1.017534,2.181818 -2.272727,2.181818 -1.255193,0 -2.272727,-0.976833 -2.272727,-2.181818 0,-1.204985 1.017534,-2.181818 2.272727,-2.181818 1.255193,0 2.272727,0.976833 2.272727,2.181818 z"
         transform="matrix(-0.34966813,0.34966813,-1.0344349,-1.0344349,69.393215,62.115231)" />
      <path
         transform="matrix(-0.34966813,0.34966813,-1.0344349,-1.0344349,62.33628,55.0583)"
         d="m -46.727273,31.636364 c 0,1.204985 -1.017534,2.181818 -2.272727,2.181818 -1.255193,0 -2.272727,-0.976833 -2.272727,-2.181818 0,-1.204985 1.017534,-2.181818 2.272727,-2.181818 1.255193,0 2.272727,0.976833 2.272727,2.181818 z"
         sodipodi:ry="2.1818182"
         sodipodi:rx="2.2727273"
         sodipodi:cy="31.636364"
         sodipodi:cx="-49"
         id="path6685"
         style="fill:#fdf539;fill-opacity:1;stroke:none"
         sodipodi:type="arc" />
    </g>
  </g>
</svg>
