<?xml version="1.0" encoding="UTF-8" standalone="no"?>
<!-- Created with Inkscape (http://www.inkscape.org/) -->

<svg
   xmlns:dc="http://purl.org/dc/elements/1.1/"
   xmlns:cc="http://creativecommons.org/ns#"
   xmlns:rdf="http://www.w3.org/1999/02/22-rdf-syntax-ns#"
   xmlns:svg="http://www.w3.org/2000/svg"
   xmlns="http://www.w3.org/2000/svg"
   xmlns:sodipodi="http://sodipodi.sourceforge.net/DTD/sodipodi-0.dtd"
   xmlns:inkscape="http://www.inkscape.org/namespaces/inkscape"
   width="64"
   height="64"
   viewBox="0 0 64.000001 64.000001"
   id="svg2"
   version="1.1"
   inkscape:version="0.48.4 r9939"
   sodipodi:docname="undo_lite.svg">
  <defs
     id="defs4" />
  <sodipodi:namedview
     id="base"
     pagecolor="#ffffff"
     bordercolor="#666666"
     borderopacity="1.0"
     inkscape:pageopacity="0.0"
     inkscape:pageshadow="2"
     inkscape:zoom="7.919596"
     inkscape:cx="-5.1707915"
     inkscape:cy="37.960675"
     inkscape:document-units="px"
     inkscape:current-layer="g3126"
     showgrid="false"
     units="px"
     inkscape:window-width="1920"
     inkscape:window-height="1018"
     inkscape:window-x="-8"
     inkscape:window-y="-8"
     inkscape:window-maximized="1" />
  <metadata
     id="metadata7">
    <rdf:RDF>
      <cc:Work
         rdf:about="">
        <dc:format>image/svg+xml</dc:format>
        <dc:type
           rdf:resource="http://purl.org/dc/dcmitype/StillImage" />
        <dc:title />
      </cc:Work>
    </rdf:RDF>
  </metadata>
  <g
     inkscape:label="Layer 1"
     inkscape:groupmode="layer"
     id="layer1"
     transform="translate(0,-988.36216)">
    <g
       id="g3134"
       style="fill:none;stroke:#e6e6e6;stroke-opacity:1">
      <g
         id="g3911"
         transform="matrix(0.85202633,-0.85202633,0.85202633,0.85202633,-861.54013,176.88824)"
         style="stroke-width:1.58098217;stroke-miterlimit:4;stroke-dasharray:none">
        <g
           style="fill:none;stroke:#e6e6e6;stroke-width:1.08303499;stroke-linejoin:round;stroke-miterlimit:4;stroke-opacity:1;stroke-dasharray:none"
           id="g3126"
           transform="translate(7.2281429,-4.5185585)">
          <path
             style="fill:#e6e6e6;fill-opacity:1;fill-rule:nonzero;stroke:#e6e6e6;stroke-width:2.08100000999999990;stroke-linecap:square;stroke-linejoin:miter;stroke-miterlimit:4;stroke-opacity:1;stroke-dasharray:none;stroke-dashoffset:0"
             d="M 22.15625 8.46875 L 14.6875 14.78125 L 7.21875 21.09375 L 14.65625 27.4375 L 22.125 33.78125 L 22.125 26.125 L 43.59375 26.125 C 43.919336 26.125 44.249815 26.294146 44.53125 26.15625 C 44.53895 26.16085 44.55478 26.15165 44.5625 26.15625 C 48.74167 28.629253 51.375 32.130509 51.375 36.03125 C 51.375 43.527922 41.733819 49.59375 29.84375 49.59375 C 26.548528 49.59375 23.448393 49.115652 20.65625 48.28125 C 24.578212 53.360163 30.841066 56.6875 37.9375 56.6875 C 49.827569 56.6875 59.46875 47.433165 59.46875 36.03125 C 59.46875 27.248938 53.749305 19.73645 45.6875 16.75 C 44.160417 16.7577 44.504558 16.84375 43.59375 16.84375 L 22.125 16.84375 L 22.15625 8.46875 z "
             transform="matrix(0.58683633,0.58683633,-0.58683633,0.58683633,22.152528,986.30397)"
             id="path4497" />
        </g>
      </g>
    </g>
  </g>
</svg>
