<?xml version="1.0" encoding="UTF-8" standalone="no"?>
<!-- Created with Inkscape (http://www.inkscape.org/) -->

<svg
   xmlns:dc="http://purl.org/dc/elements/1.1/"
   xmlns:cc="http://creativecommons.org/ns#"
   xmlns:rdf="http://www.w3.org/1999/02/22-rdf-syntax-ns#"
   xmlns:svg="http://www.w3.org/2000/svg"
   xmlns="http://www.w3.org/2000/svg"
   xmlns:sodipodi="http://sodipodi.sourceforge.net/DTD/sodipodi-0.dtd"
   xmlns:inkscape="http://www.inkscape.org/namespaces/inkscape"
   width="64"
   height="64"
   viewBox="0 0 64.000001 64.000001"
   id="svg3356"
   version="1.1"
   inkscape:version="0.91 r13725"
   sodipodi:docname="zoom_In_lite.svg">
  <defs
     id="defs3358" />
  <sodipodi:namedview
     id="base"
     pagecolor="#ffffff"
     bordercolor="#666666"
     borderopacity="1.0"
     inkscape:pageopacity="0.0"
     inkscape:pageshadow="2"
     inkscape:zoom="7.9195959"
     inkscape:cx="10.123851"
     inkscape:cy="26.093892"
     inkscape:document-units="px"
     inkscape:current-layer="layer1"
     showgrid="false"
     units="px"
     inkscape:window-width="1512"
     inkscape:window-height="791"
     inkscape:window-x="-8"
     inkscape:window-y="-8"
     inkscape:window-maximized="1" />
  <metadata
     id="metadata3361">
    <rdf:RDF>
      <cc:Work
         rdf:about="">
        <dc:format>image/svg+xml</dc:format>
        <dc:type
           rdf:resource="http://purl.org/dc/dcmitype/StillImage" />
        <dc:title></dc:title>
      </cc:Work>
    </rdf:RDF>
  </metadata>
  <g
     inkscape:label="Layer 1"
     inkscape:groupmode="layer"
     id="layer1"
     transform="translate(0,-988.36216)">
    <g
       id="g3375"
       style="fill:#f2f2f2">
      <g
         id="g3383"
         transform="matrix(0.75138106,0.65986855,-0.65986855,0.75138106,682.38869,232.69378)"
         style="fill:#f2f2f2">
        <rect
           style="fill:#f2f2f2;fill-rule:evenodd;stroke:none;stroke-width:0.95184213px;stroke-linecap:butt;stroke-linejoin:miter;stroke-opacity:1"
           id="rect3364"
           width="7.3451576"
           height="28.584965"
           x="28.891539"
           y="1022.2859"
           ry="1.9060411" />
        <path
           style="fill:#f2f2f2"
           d="m 32.393847,992.49956 a 15.6,15.6 0 0 0 -15.599609,15.59964 15.6,15.6 0 0 0 15.599609,15.5996 15.6,15.6 0 0 0 15.59961,-15.5996 15.6,15.6 0 0 0 -15.59961,-15.59964 z m 0,2.65039 a 13.074619,13.074619 0 0 1 13.074219,13.07615 13.074619,13.074619 0 0 1 -13.074219,13.0742 13.074619,13.074619 0 0 1 -13.074219,-13.0742 13.074619,13.074619 0 0 1 13.074219,-13.07615 z"
           id="path3366"
           inkscape:connector-curvature="0" />
        <rect
           style="fill:#f2f2f2"
           id="rect3371"
           width="4.6719556"
           height="18.940361"
           x="30.304577"
           y="999.0766"
           ry="0" />
        <rect
           ry="0"
           y="31.681307"
           x="-1010.5714"
           height="18.940361"
           width="4.6719556"
           id="rect3373"
           style="fill:#f2f2f2"
           transform="matrix(0.00843996,-0.99996438,0.99996438,0.00843996,0,0)" />
      </g>
    </g>
  </g>
</svg>
